<?xml version="1.0" encoding="UTF-8"?>
<svg id="Layer_2" data-name="Layer 2" xmlns="http://www.w3.org/2000/svg" viewBox="0 0 233.4 218.06">
  <defs>
    <style>
      .cls-1 {
        fill: #006635;
      }

      .cls-2 {
        fill: #006838;
      }
    </style>
  </defs>
  <g id="Layer_1-2" data-name="Layer 1">
    <g>
      <path class="cls-1" d="M17.79,138.64h195.23c.45,0,.81-.36.81-.8s-.37-.81-.81-.81H17.79c-.45,0-.81.35-.81.81s.35.8.81.8"/>
      <polygon class="cls-2" points="64.93 34.69 113.57 95.13 117.7 95.13 165.77 34.69 165.77 125.92 188.27 125.92 188.27 0 165.77 0 115.69 64.21 64.94 0 42.55 0 42.55 125.92 64.93 125.92 64.93 34.69"/>
    </g>
    <g>
      <path class="cls-1" d="M.52,188.94v-38.47h6.1l15.15,23.59h-3.11l15.09-23.59h6.16v38.47h-8.55v-24.03l1.53.38-9.86,15.37h-5.67l-9.81-15.37,1.47-.38v24.03H.52Z"/>
      <path class="cls-1" d="M44.39,188.94l15.26-38.47h7.74l15.09,38.47h-9.05l-11.55-31.93h3.11l-11.72,31.93h-8.88ZM53.05,181.96v-6.97h20.98v6.97h-20.98Z"/>
      <path class="cls-1" d="M93.59,174.61l-14.82-24.14h9.92l11.39,19.51h-6.38l11.39-19.51h9.7l-14.93,24.14h-6.27ZM92.55,188.94v-18.25h8.55v18.25h-8.55Z"/>
      <path class="cls-1" d="M117.94,188.94v-38.47h8.55v38.47h-8.55ZM124.48,157.83v-7.36h20.11v7.36h-20.11ZM124.48,173.85v-7.36h19.23v7.36h-19.23Z"/>
      <path class="cls-1" d="M144.15,188.94l15.26-38.47h7.74l15.09,38.47h-9.04l-11.55-31.93h3.11l-11.71,31.93h-8.88ZM152.82,181.96v-6.97h20.98v6.97h-20.98Z"/>
      <path class="cls-1" d="M186.38,188.94v-38.47h8.55v38.47h-8.55Z"/>
      <path class="cls-1" d="M202.35,188.94v-38.47h8.55v38.47h-8.55ZM208.88,173.08v-6.32h8.12c1.71,0,3.02-.44,3.95-1.31.93-.87,1.39-2.05,1.39-3.54,0-1.38-.45-2.52-1.36-3.43-.91-.91-2.22-1.36-3.92-1.36h-8.17v-6.65h9.15c2.54,0,4.78.48,6.7,1.44,1.92.96,3.43,2.3,4.52,4.01,1.09,1.71,1.63,3.67,1.63,5.88s-.54,4.22-1.63,5.91c-1.09,1.69-2.62,3.01-4.58,3.95-1.96.94-4.27,1.42-6.92,1.42h-8.88ZM223.27,188.94l-11.99-16.56,7.85-2.12,14.28,18.69h-10.13Z"/>
    </g>
    <g>
      <path class="cls-1" d="M0,217.79v-18.38h2.49v18.38H0Z"/>
      <path class="cls-1" d="M17.93,217.79v-18.38h1.75l.74,2.89v15.49h-2.49ZM30.64,217.79l-11.28-15.07.32-3.31,11.31,15.04-.34,3.34ZM30.64,217.79l-.74-2.73v-15.65h2.49v18.38h-1.75Z"/>
      <path class="cls-1" d="M52.6,218.06c-1.45,0-2.68-.26-3.71-.79-1.02-.53-1.93-1.3-2.73-2.3l1.69-1.7c.58.81,1.25,1.43,2.01,1.84.76.42,1.69.62,2.81.62s1.97-.24,2.64-.72.99-1.13.99-1.96c0-.69-.16-1.24-.48-1.67s-.75-.77-1.28-1.05c-.54-.27-1.13-.52-1.76-.74-.64-.22-1.27-.46-1.91-.71s-1.22-.57-1.75-.95c-.53-.38-.96-.88-1.28-1.5s-.49-1.39-.49-2.33c0-1.04.25-1.93.75-2.66.5-.73,1.19-1.3,2.07-1.69.87-.4,1.86-.6,2.95-.6,1.2,0,2.28.23,3.23.7.95.47,1.73,1.08,2.33,1.84l-1.7,1.7c-.55-.64-1.13-1.11-1.76-1.43-.63-.32-1.35-.48-2.16-.48-.99,0-1.77.22-2.36.65-.58.43-.87,1.04-.87,1.81,0,.62.16,1.12.49,1.5s.75.7,1.28.97c.53.26,1.12.51,1.76.73s1.28.46,1.92.73c.64.27,1.22.6,1.75,1.01s.96.93,1.28,1.58c.33.64.49,1.45.49,2.42,0,1.62-.56,2.9-1.68,3.81-1.12.92-2.64,1.38-4.54,1.38Z"/>
      <path class="cls-1" d="M80.49,218.06c-1.36,0-2.57-.3-3.64-.91-1.07-.61-1.91-1.45-2.53-2.52-.62-1.07-.93-2.28-.93-3.64v-11.57h2.49v11.52c0,.97.2,1.81.61,2.52s.96,1.25,1.66,1.64c.7.39,1.48.58,2.34.58s1.69-.19,2.37-.58c.68-.39,1.22-.94,1.62-1.64.4-.71.6-1.54.6-2.49v-11.55h2.52v11.6c0,1.36-.31,2.57-.93,3.63-.62,1.06-1.46,1.89-2.52,2.5-1.06.61-2.28.91-3.66.91Z"/>
      <path class="cls-1" d="M102.79,217.79v-18.38h2.49v18.38h-2.49ZM104.46,209.79v-2.09h4.98c1.08,0,1.91-.27,2.49-.82.58-.55.87-1.29.87-2.22,0-.88-.29-1.62-.86-2.2-.57-.58-1.4-.87-2.48-.87h-5.01v-2.17h5.09c1.17,0,2.18.22,3.05.67.86.45,1.53,1.06,2,1.84.47.78.7,1.67.7,2.67s-.23,1.95-.7,2.73c-.47.78-1.13,1.38-2,1.81-.87.43-1.88.65-3.05.65h-5.09ZM113.39,217.79l-6.67-8.24,2.36-.82,7.47,9.06h-3.15Z"/>
      <path class="cls-1" d="M128.3,217.79l7.52-18.38h1.8l7.5,18.38h-2.7l-6.17-15.55h.93l-6.22,15.55h-2.65ZM131.87,213.63v-2.17h9.67v2.17h-9.67Z"/>
      <path class="cls-1" d="M158.99,217.79v-18.38h1.75l.74,2.89v15.49h-2.49ZM171.71,217.79l-11.28-15.07.32-3.31,11.31,15.04-.34,3.34ZM171.71,217.79l-.74-2.73v-15.65h2.49v18.38h-1.75Z"/>
      <path class="cls-1" d="M197.27,218.06c-1.32,0-2.55-.24-3.68-.73s-2.11-1.16-2.95-2.03-1.49-1.87-1.95-3.02c-.46-1.15-.69-2.38-.69-3.68s.23-2.56.69-3.71c.46-1.15,1.11-2.15,1.95-3.01.84-.86,1.82-1.53,2.94-2.01,1.12-.49,2.34-.73,3.67-.73,1.45,0,2.72.25,3.81.74,1.09.49,2.07,1.17,2.91,2.01l-1.72,1.72c-.58-.65-1.29-1.17-2.13-1.54-.84-.37-1.8-.56-2.87-.56-.97,0-1.86.17-2.67.52-.81.34-1.52.83-2.12,1.47-.6.64-1.06,1.39-1.39,2.25s-.49,1.81-.49,2.83.16,1.97.49,2.83.79,1.62,1.39,2.25,1.31,1.13,2.12,1.47c.81.34,1.7.52,2.67.52,1.15,0,2.15-.19,2.99-.57.85-.38,1.56-.9,2.15-1.55l1.72,1.69c-.85.88-1.84,1.57-2.98,2.07-1.14.49-2.42.74-3.85.74Z"/>
      <path class="cls-1" d="M218.27,217.79v-18.38h2.49v18.38h-2.49ZM219.96,201.69v-2.28h10.41v2.28h-10.41ZM219.96,209.47v-2.17h9.67v2.17h-9.67ZM219.96,217.79v-2.28h10.54v2.28h-10.54Z"/>
    </g>
  </g>
</svg>